**ABCDEFGHIJKLMNOPQRSTUVWXYZabcdefghijklmnopqrstuvwxyz**************************
**PARASOLID !"#$%&'()*+,-./:;<=>?@[\]^_`{|}~0123456789**************************
**PART1;
MC=AMD64;
MC_MODEL=Intel64 Family 6 Model 42 Stepping 7, GenuineIntel;
MC_ID=unknown;
OS=Windows_NT;
OS_RELEASE=unknown;
FRU=Parasolid Version 35.1, build 210,  4-20-2023;
APPL=SOLIDWORKS 2024-2023282;
SITE=;
USER=unknown;
FORMAT=text;
GUISE=transmit;
KEY=Малая кнопка~;
FILE=Малая кнопка~.x_t;
DATE=Thu Jul  4 17:01:22 2024;
**PART2;
SCH=SCH_3501210_35102;
USFLD_SIZE=0;
**PART3;
**END_OF_HEADER*****************************************************************
T51 : TRANSMIT FILE created by modeller version 350121017 SCH_3300000_320010 12
 1 1800 2 3 0 0 0 0 0 0 1e3 1e-8 0 4 0 1 0 1 1 5 6 7 8 0 0 9 10 11 0 0 0 0 0 0 0
 81 2 2 1749 12 1 13 0 0 0 0 14 70 3 0 4 T1 0 0 12 20 1 15 15 13 5 99 0 1 0 16 0
 0 17 0 50 6 93 0 18 19 0 0 +.019 0 0 0 1 0 0 0 1 31 7 1384 0 10 20 0 0 -.061609
0670170828 .0697463863337714 -.0095 .724999433594414 -.688749461914693 0 .688749
461914693 .724999433594414 0 .0868711682239508 29 8 1031 0 11 21 0 .01015 .0045
 -.00745 19 9 33 0 1 17 0 22 V0 16 10 1382 0 ?23 0 24 7 0 0 1 18 11 1029 0 25 0
 26 8 ?1 17 25 0 27 28 29 11 30 31 0 32 +18 26 885 0 33 11 34 21 ?1 17 33 0 35 3
6 37 26 38 39 0 40 +18 34 394 0 41 26 42 43 ?1 29 21 887 0 26 43 8 .0015 0 -.017
5 29 43 396 0 34 44 21 .0001000000000000032 .005 -.0189 29 44 368 0 42 45 43 .01
9 0 -.019 18 42 230 0 46 34 47 44 ?1 29 45 748 0 47 48 44 .002 .007 -.017 18 47
 518 0 49 42 50 45 ?1 29 48 755 0 50 51 45 1e-4 .005 -999999999999951e-19 18 50
 510 0 52 47 53 48 ?1 29 51 761 0 53 54 48 .0189 .005 -999999999999955e-19 18 53
 626 0 55 50 56 51 ?1 29 54 762 0 56 57 51 .0189 .005 -.0189 18 56 625 0 58 53 5
9 54 ?1 29 57 764 0 60 61 54 .019 3469446951953615e-33 0 18 60 628 0 62 63 64 57
 ?1 29 61 774 0 63 65 57 0 3469446951953615e-33 0 18 63 515 0 66 59 60 61 ?1 29
 65 778 0 59 67 61 0 3469446951953615e-33 -.019 18 59 514 0 68 56 63 65 ?1 29 67
 981 0 69 70 65 .0015 0 -.0015 18 69 934 0 37 71 72 67 ?1 29 70 982 0 72 73 67 .
0175 0 -.0015 18 72 936 0 74 69 75 70 ?1 29 73 983 0 75 76 70 .0175 0 -.0175 18
 75 938 0 77 72 78 73 ?1 29 76 985 0 64 79 73 .0015 .0045 -.0015 18 64 931 0 80
 60 81 76 ?1 29 79 986 0 81 82 76 .0175 .0045 -.0015 18 81 933 0 83 64 84 79 ?1
 29 82 987 0 84 85 79 .0175 .0045 -.0175 18 84 935 0 86 81 71 82 ?1 29 85 988 0
 71 87 82 .0015 .0045 -.0175 18 71 937 0 36 84 69 85 ?1 29 87 1301 0 88 89 85 .0
1015 .0045 -.00885 18 88 1188 0 28 90 91 87 ?1 29 89 1303 0 91 92 87 .00885 .004
5 -.00745 18 91 1187 0 93 88 94 89 ?1 29 92 1304 0 94 95 89 .00885 .0045 -.00885
 18 94 1185 0 96 91 97 92 ?1 29 95 1305 0 97 98 92 .00745 .0045 -.00885 18 97 11
83 0 99 94 100 95 ?1 29 98 1306 0 100 101 95 .00745 .0045 -.01015 18 100 1182 0
 102 97 103 98 ?1 29 101 1307 0 103 104 98 .00885 .0045 -.01015 18 103 1180 0 10
5 100 106 101 ?1 29 104 1308 0 106 107 101 .00885 .0045 -.01155 18 106 1178 0 10
8 103 109 104 ?1 29 107 1309 0 109 110 104 .01015 .0045 -.01155 18 109 1176 0 11
1 106 112 107 ?1 29 110 1310 0 112 113 107 .01015 .0045 -.01015 18 112 1174 0 11
4 109 115 110 ?1 29 113 1311 0 115 116 110 .01155 .0045 -.01015 18 115 1173 0 11
7 112 118 113 ?1 29 116 1312 0 118 119 113 .01155 .0045 -.00885 18 118 1194 0 12
0 115 121 116 ?1 29 119 1313 0 78 122 116 .01015 5e-4 -.00885 18 78 1193 0 123 7
5 124 119 ?1 29 122 1314 0 124 125 119 .01015 5e-4 -.00745 18 124 1192 0 126 78
 127 122 ?1 29 125 1315 0 127 128 122 .00885 5e-4 -.00745 18 127 1184 0 129 124
 130 125 ?1 29 128 1316 0 130 131 125 .00885 5e-4 -.00885 18 130 1191 0 132 127
 133 128 ?1 29 131 1317 0 133 134 128 .00745 5e-4 -.00885 18 133 1181 0 135 130
 136 131 ?1 29 134 1318 0 136 137 131 .00745 5e-4 -.01015 18 136 1179 0 138 133
 139 134 ?1 29 137 1319 0 139 140 134 .00885 5e-4 -.01015 18 139 1177 0 141 136
 142 137 ?1 29 140 1320 0 142 143 137 .00885 5e-4 -.01155 18 142 1175 0 144 139
 145 140 ?1 29 143 1321 0 145 146 140 .01015 5e-4 -.01155 18 145 1190 0 147 142
 148 143 ?1 29 146 1322 0 148 149 143 .01015 5e-4 -.01015 18 148 1172 0 150 145
 151 146 ?1 29 149 1323 0 151 152 146 .01155 5e-4 -.01015 18 151 1189 0 153 148
 90 149 ?1 29 152 1324 0 90 154 149 .01155 5e-4 -.00885 18 90 1171 0 155 151 88
 152 ?1 29 154 1460 0 121 156 152 .002 .007 -.002 18 121 1414 0 23 118 157 154 ?
1 29 156 1461 0 157 158 154 .017 .007 -.0020000000000001 18 157 1413 0 159 121 1
60 156 ?1 29 158 1462 0 160 0 156 .017 .007 -.017 18 160 1415 0 161 157 0 158 ?1
 17 161 0 162 49 159 160 163 164 0 165 +15 162 1419 0 161 166 0 17 49 0 162 23 1
61 47 165 167 0 168 +17 159 0 162 161 23 157 169 170 0 163 +17 163 0 171 55 172
 157 161 164 0 173 -16 164 1402 0 ?161 174 170 175 0 0 1 17 165 0 176 177 178 16
0 49 167 0 172 -15 176 1392 0 165 179 0 17 177 0 176 180 165 56 172 181 0 182 +1
7 178 0 176 165 180 47 183 24 0 0 +16 167 1406 0 ?49 170 0 184 0 0 1 17 172 0 17
1 163 185 160 177 181 0 0 -15 171 1388 0 163 186 0 17 185 0 171 172 55 56 187 18
8 0 177 -16 181 413 0 ?177 24 189 190 0 0 1 16 24 418 0 ?178 10 181 20 0 0 1 16
 189 402 0 ?191 181 192 193 0 0 1 30 190 415 0 181 193 20 0 +.01893217468805705
 .00496613190730838 -.01893217468805705 .567227362325205 -.597081434026533 -.567
227362325206 30 193 404 0 189 194 190 0 +759392486011576e-20 .000379696243005593
5 -.0189924060751399 .01999200479680215 .999600239840112 .0199920047968021 30 20
 420 0 24 190 7 0 +.00618101604278074 .01140106951871658 -.01281898395721926 .56
7227362325205 .597081434026533 .567227362325206 30 194 399 0 192 195 193 0 +.019
 0 -.019 .01999200479680215 -.999600239840112 -.0199920047968021 16 192 397 0 ?1
96 189 197 194 0 0 1 30 195 98 0 197 198 194 0 +.019 0 0 -1 0 0 16 197 82 0 ?199
 192 200 195 0 0 1 30 198 97 0 200 201 195 0 +.019 0 -.019 -1 0 0 16 200 81 0 ?2
02 197 203 198 0 0 1 30 201 73 0 204 205 198 0 +0 0 0 0 0 -1 16 204 58 0 ?206 20
3 207 201 0 0 1 30 205 11 0 203 208 201 0 +.019 0 0 0 0 -1 16 203 9 0 ?46 200 20
4 205 0 0 1 30 208 330 0 209 210 205 0 +.019 .005 -1e-4 -1 0 0 16 209 424 0 ?211
 207 212 208 0 0 1 30 210 342 0 207 213 208 0 +.019 .005 -.0189 -1 0 0 16 207 39
2 0 ?180 204 209 210 0 0 1 30 213 709 0 212 214 210 0 +.00618101604278074 .01140
106951871656 -.00618101604278074 -.567227362325205 -.597081434026532 .5672273623
25206 16 212 467 0 ?215 209 216 213 0 0 1 30 214 712 0 216 217 213 0 +.018932174
68805705 .00496613190730838 -67825311942957e-18 -.567227362325205 .5970814340265
33 -.567227362325206 16 216 582 0 ?173 212 218 214 0 0 1 30 217 717 0 218 219 21
4 0 +759392486011576e-20 .000379696243005597 -759392486011183e-20 -.019992004796
80215 -.999600239840112 .01999200479680215 16 218 476 0 ?220 216 221 217 0 0 1 3
0 219 722 0 221 222 217 0 +.019 3469446951953615e-33 0 -.01999200479680215 .9996
00239840112 -.01999200479680215 16 221 592 0 ?223 218 224 219 0 0 1 30 222 724 0
 188 225 219 0 +.0189 .005 -.019 0 0 1 16 188 581 0 ?187 224 226 222 0 0 1 30 22
5 736 0 224 227 222 0 +1e-4 .005 -.019 0 0 1 16 224 475 0 ?228 221 188 225 0 0 1
 30 227 969 0 229 230 225 0 +.0015 .0045 -.0175 0 -1 0 16 229 906 0 ?40 231 232
 227 0 0 1 30 230 970 0 231 233 227 0 +.0175 .0045 -.0175 0 -1 0 16 231 918 0 ?7
7 234 229 230 0 0 1 30 233 971 0 234 235 230 0 +.0175 .0045 -.0015 0 -1 0 16 234
 914 0 ?74 226 231 233 0 0 1 30 235 972 0 226 236 233 0 +.0015 .0045 -.0015 0 -1
 0 16 226 910 0 ?37 188 234 235 0 0 1 30 236 973 0 237 238 235 0 +.0015 0 -.0015
 -1 0 0 16 237 928 0 ?239 240 241 236 0 0 1 30 238 974 0 241 242 236 0 +.0175 0
 -.0015 0 0 1 16 241 925 0 ?243 237 244 238 0 0 1 30 242 975 0 244 245 238 0 +.0
015 0 -.0175 1 0 216840434497101e-30 16 244 922 0 ?246 241 39 242 0 0 1 30 245 9
76 0 39 247 242 0 +.0015 0 -.0015 1084202172485504e-31 0 -1 16 39 919 0 ?33 244
 248 245 0 0 1 30 247 977 0 232 249 245 0 +.0015 .0045 -.0015 -1 0 0 16 232 907
 0 ?250 229 251 247 0 0 1 30 249 978 0 251 252 247 0 +.0175 .0045 -.0015 0 0 1 1
6 251 911 0 ?253 232 254 249 0 0 1 30 252 979 0 254 255 249 0 +.0015 .0045 -.017
5 1 0 216840434497101e-30 16 254 915 0 ?256 251 240 252 0 0 1 30 255 980 0 240 2
57 252 0 +.0015 .0045 -.0015 1084202172485504e-31 0 -1 16 240 903 0 ?258 254 237
 255 0 0 1 30 257 1271 0 248 259 255 0 +.01155 5e-4 -.00885 0 1 0 16 248 1088 0
 ?120 39 260 257 0 0 1 30 259 1272 0 260 261 257 0 +.01155 5e-4 -.01015 0 1 0 16
 260 1092 0 ?117 248 262 259 0 0 1 30 261 1273 0 262 263 259 0 +.01015 5e-4 -.01
015 0 1 0 16 262 1096 0 ?114 260 264 261 0 0 1 30 263 1274 0 264 265 261 0 +.010
15 5e-4 -.01155 0 1 0 16 264 1100 0 ?111 262 266 263 0 0 1 30 265 1275 0 266 267
 263 0 +.00885 5e-4 -.01155 0 1 0 16 266 1104 0 ?108 264 268 265 0 0 1 30 267 12
76 0 268 269 265 0 +.00885 5e-4 -.01015 0 1 0 16 268 1108 0 ?105 266 270 267 0 0
 1 30 269 1277 0 270 271 267 0 +.00745 5e-4 -.01015 0 1 0 16 270 1112 0 ?102 268
 272 269 0 0 1 30 271 1278 0 272 273 269 0 +.00745 5e-4 -.00885 0 1 0 16 272 111
6 0 ?99 270 274 271 0 0 1 30 273 1279 0 274 275 271 0 +.00885 5e-4 -.00885 0 1 0
 16 274 1120 0 ?96 272 276 273 0 0 1 30 275 1280 0 276 277 273 0 +.00885 5e-4 -.
00745 0 1 0 16 276 1124 0 ?93 274 31 275 0 0 1 30 277 1281 0 31 278 275 0 +.0101
5 5e-4 -.00745 0 1 0 16 31 1128 0 ?25 276 279 277 0 0 1 30 278 1282 0 279 280 27
7 0 +.01015 5e-4 -.00885 0 1 0 16 279 1084 0 ?281 31 282 278 0 0 1 31 280 1283 0
 283 284 278 0 +.0095 .0045 -.0095 0 -1 0 0 0 -1 .00265 16 283 1129 0 ?285 286 2
87 280 0 0 1 30 284 1284 0 288 289 280 0 +0 .0045 -.00745 1 0 0 16 288 1121 0 ?3
2 287 290 284 0 0 1 30 289 1285 0 291 292 284 0 +.00745 .0045 0 0 0 -1 16 291 11
56 0 ?293 294 295 289 0 0 1 30 292 1286 0 296 297 289 0 +.00885 .0045 0 0 0 -1 1
6 296 1162 0 ?298 295 299 292 290 290 1 30 297 1287 0 299 300 292 0 +0 .0045 -.0
1155 1 0 0 16 299 1165 0 ?301 296 302 297 0 0 1 30 300 1288 0 302 303 297 0 +.01
015 .0045 0 0 0 -1 16 302 1093 0 ?304 299 305 300 287 287 1 30 303 1289 0 305 30
6 300 0 +0 .0045 -.01015 1 0 0 16 305 1168 0 ?307 302 308 303 295 295 1 30 306 1
290 0 308 309 303 0 +.01155 .0045 0 0 0 -1 16 308 1085 0 ?310 305 174 306 0 0 1
 30 309 1291 0 174 311 306 0 +0 .0045 -.00885 1 0 0 16 174 1081 0 ?312 308 164 3
09 294 294 1 31 311 1292 0 282 313 309 0 +.0095 5e-4 -.0095 0 -1 0 0 0 -1 .00265
 16 282 1150 0 ?314 279 315 311 0 0 1 30 313 1293 0 316 317 311 0 +0 5e-4 -.0074
5 1 0 0 16 316 1144 0 ?126 315 318 313 0 0 1 30 317 1294 0 319 320 313 0 +.00745
 5e-4 0 0 0 -1 16 319 1109 0 ?321 322 323 317 0 0 1 30 320 1295 0 324 325 317 0
 +.00885 5e-4 0 0 0 -1 16 324 1101 0 ?326 323 327 320 318 318 1 30 325 1296 0 32
7 328 320 0 +0 5e-4 -.01155 1 0 0 16 327 1097 0 ?329 324 330 325 0 0 1 30 328 12
97 0 330 331 325 0 +.01015 5e-4 0 0 0 -1 16 330 1138 0 ?147 327 332 328 315 315
 1 30 331 1298 0 332 333 328 0 +0 5e-4 -.01015 1 0 0 16 332 1089 0 ?334 330 335
 331 323 323 1 30 333 1299 0 335 336 331 0 +.01155 5e-4 0 0 0 -1 16 335 1135 0 ?
153 332 286 333 0 0 1 30 336 1300 0 286 175 333 0 +0 5e-4 -.00885 1 0 0 16 286 1
132 0 ?337 335 283 336 322 322 1 31 175 1451 0 164 338 336 0 --.0426090670170828
 .0697463863337715 -.0095 -.724999433594415 -.688749461914692 0 .688749461914692
 -.724999433594415 0 .0868711682239509 31 338 1452 0 170 184 175 0 -.0095 .06974
63863337713 -.0616090670170828 0 -.688749461914693 -.724999433594414 0 .72499943
3594414 -.688749461914693 .0868711682239507 16 170 1404 0 ?159 164 167 338 0 0 1
 31 184 1453 0 167 0 338 0 -.0095 .0697463863337714 .0426090670170828 0 -.688749
461914693 .724999433594414 0 -.724999433594414 -.688749461914693 .08687116822395
08 17 337 0 339 153 123 90 340 286 0 341 +16 322 1141 0 ?132 318 319 336 286 286
 1 17 132 0 339 342 343 130 344 322 0 345 +16 318 1117 0 ?346 316 322 320 324 32
4 1 17 346 0 347 96 129 130 342 318 0 0 +15 347 1234 0 348 349 0 17 96 0 347 348
 346 94 345 274 0 350 +17 129 0 347 346 348 127 93 276 0 351 -17 342 0 339 126 1
32 127 346 318 0 0 -15 339 1251 0 337 352 353 17 126 0 339 123 342 124 351 316 0
 30 +17 123 0 339 337 126 78 29 315 0 354 +17 351 0 355 93 30 127 126 316 0 342
 -17 30 0 355 351 32 124 25 31 0 29 -15 355 1238 0 32 356 0 17 32 0 355 30 93 11
 357 288 0 358 +17 29 0 27 25 354 124 123 315 0 0 -15 27 1242 0 28 359 0 17 354
 0 27 29 28 78 281 279 0 340 -16 315 1147 0 ?123 282 316 328 330 330 1 17 28 0 2
7 354 25 88 358 287 0 281 +17 281 0 360 312 340 88 354 279 0 361 +17 340 0 360 2
81 341 78 337 286 0 0 -15 360 1198 0 312 362 0 17 341 0 360 340 312 90 120 248 0
 0 -17 312 0 360 341 281 118 361 174 0 363 +17 120 0 364 310 155 118 341 248 0 3
12 +15 364 1202 0 310 365 0 17 310 0 364 366 120 115 363 308 0 307 +17 155 0 364
 120 366 90 153 335 0 337 -17 366 0 364 155 310 151 117 260 0 334 -17 153 0 339
 367 337 151 155 335 0 366 +17 367 0 339 147 153 148 334 332 0 0 -17 147 0 339 3
68 367 145 369 330 0 370 +17 334 0 371 117 150 151 367 332 0 0 +15 371 1206 0 37
2 373 0 17 117 0 371 372 334 115 366 260 0 310 +17 150 0 371 334 372 148 114 262
 0 369 -17 372 0 371 150 117 112 307 305 0 374 -17 114 0 375 304 369 112 150 262
 0 372 +17 369 0 375 114 370 148 147 330 0 367 -15 375 1210 0 304 376 0 17 370 0
 375 369 304 145 111 264 0 329 -17 304 0 375 370 114 109 374 302 0 301 +17 111 0
 377 378 329 109 370 264 0 304 +17 329 0 377 111 144 145 368 327 0 0 +15 377 121
4 0 378 379 0 17 144 0 377 329 378 142 108 266 0 368 -17 368 0 339 380 147 142 3
29 327 0 326 -17 380 0 339 381 368 139 326 324 0 382 -17 326 0 383 108 141 142 3
80 324 0 0 +15 383 1218 0 384 385 0 17 108 0 383 384 326 106 144 266 0 378 +17 1
41 0 383 326 384 139 105 268 0 380 -17 384 0 383 141 108 103 298 296 0 386 -17 1
05 0 387 388 382 103 141 268 0 384 +15 387 1222 0 388 389 0 17 388 0 387 138 105
 100 386 295 0 293 -17 382 0 387 105 138 139 381 323 0 0 +17 138 0 387 382 388 1
36 102 270 0 381 -17 381 0 339 343 380 136 382 323 0 321 -16 323 1105 0 ?382 319
 324 331 332 332 1 17 343 0 339 132 381 133 321 319 0 0 -17 321 0 390 102 135 13
6 343 319 0 0 +15 390 1226 0 391 392 0 17 102 0 390 391 321 100 138 270 0 388 +1
7 135 0 390 321 391 133 99 272 0 344 -17 391 0 390 135 102 97 293 291 0 393 -17
 99 0 394 350 344 97 135 272 0 391 +17 344 0 394 99 345 133 132 322 0 343 -15 39
4 1230 0 350 395 0 17 345 0 394 344 350 130 96 274 0 346 -17 350 0 394 345 99 94
 393 294 0 396 +17 393 0 397 293 396 97 350 294 0 0 -16 294 1113 0 ?350 290 291
 309 174 174 1 17 396 0 397 393 357 94 348 290 0 0 +15 397 1027 0 363 398 0 17 3
57 0 397 396 358 91 32 288 0 0 -17 348 0 347 129 96 91 396 290 0 357 -16 290 115
3 0 ?396 288 294 292 296 296 1 17 358 0 397 357 361 11 28 287 0 0 -17 361 0 397
 358 363 88 312 174 0 0 -16 287 1125 0 ?28 283 288 300 302 302 1 17 363 0 397 36
1 307 118 310 308 0 0 -17 307 0 397 363 374 115 372 305 0 0 +17 374 0 397 307 30
1 112 304 302 0 0 -17 301 0 397 374 298 109 378 299 0 0 +17 298 0 397 301 386 10
6 384 296 0 0 +17 378 0 377 144 111 106 301 299 0 298 -17 386 0 397 298 293 103
 388 295 0 0 +17 293 0 397 386 393 100 391 291 0 0 +16 295 1159 0 ?386 291 296 3
03 305 305 1 14 398 1023 399 ?166 352 397 5 400 +401 401 166 352 22 81 1 399 175
1 402 398 403 0 0 404 405 14 166 1417 404 ?0 398 162 5 406 +0 0 0 398 22 14 352
 1248 407 ?398 408 339 5 409 +0 0 398 408 22 50 400 968 0 401 410 411 0 +0 .0045
 0 0 -1 0 0 0 -1 14 401 955 412 ?362 413 414 5 400 +398 398 362 413 22 13 22 34
 0 0 0 0 0 0 9 16 14 16 1397 415 ?179 0 416 5 19 -0 0 179 0 22 81 1 415 1758 402
 16 417 0 412 418 419 14 179 1393 418 ?186 16 176 5 420 -0 0 186 16 22 15 416 13
96 0 169 16 0 50 19 318 0 16 421 6 0 +.019 .005 -1e-4 0 -.688749461914693 -.7249
99433594414 0 .724999433594414 -.688749461914693 50 421 319 0 422 423 19 0 +.019
 3469446951953615e-33 0 0 -.01999600119960005 -.999800059980007 0 .9998000599800
07 -.01999600119960005 14 422 299 424 ?425 18 426 5 421 -0 0 425 18 22 50 423 32
4 0 425 420 421 0 +.019 0 -.019 0 -.0199960011996 .999800059980007 0 -.999800059
980007 -.0199960011996 14 425 244 427 ?428 422 429 5 423 -0 0 428 422 22 50 420
 325 0 179 430 423 0 +.019 .005 -.0189 0 -.688749461914693 .724999433594414 0 -.
724999433594414 -.688749461914693 50 430 696 0 186 431 420 0 +.0189 .005 -.019 -
.724999433594415 -.688749461914692 0 .688749461914692 -.724999433594415 0 14 186
 1389 432 ?433 179 171 5 430 -0 0 433 179 22 50 431 697 0 428 434 430 0 +.019 34
69446951953615e-33 -.019 -.999800059980007 -.01999600119960005 0 .01999600119960
005 -.999800059980007 0 14 428 661 435 ?436 425 437 5 431 -0 0 436 425 22 50 434
 702 0 436 438 431 0 +0 3469446951953615e-33 -.019 .999800059980007 -.0199960011
9960005 0 .01999600119960005 .999800059980007 0 14 436 546 439 ?440 428 441 5 43
4 -0 0 440 428 22 50 438 703 0 433 442 434 0 +1e-4 .005 -.019 .724999433594414 -
.688749461914693 0 .688749461914693 .724999433594414 0 14 433 1385 443 ?18 186 4
44 5 438 -0 0 18 186 22 50 442 963 0 440 445 438 0 +.0015 .0045 -.0015 -1 0 -108
4202172485504e-31 -1084202172485504e-31 0 1 14 440 939 446 ?447 436 35 5 442 -0
 0 447 436 22 50 445 964 0 413 448 442 0 +.0015 .0045 -.0175 216840434497101e-30
 0 -1 -1 0 -216840434497101e-30 14 413 951 449 ?401 450 451 5 445 -0 0 401 450 2
2 50 448 965 0 450 411 445 0 +.0175 .0045 -.0015 1 0 0 0 0 -1 14 450 947 452 ?41
3 447 453 5 448 -0 0 413 447 22 50 411 966 0 447 400 448 0 +.0015 .0045 -.0015 0
 0 1 1 0 0 14 447 943 454 ?450 440 455 5 411 -0 0 450 440 22 81 1 454 1773 402 4
47 456 0 452 457 458 15 455 946 0 239 447 0 17 239 0 455 80 74 69 459 237 0 38 +
17 80 0 455 460 239 64 37 226 0 461 -17 74 0 455 239 460 72 83 234 0 243 +17 459
 0 462 463 38 72 239 237 0 0 -17 38 0 462 459 464 69 33 39 0 0 -15 462 883 0 464
 18 465 17 464 0 462 38 463 26 246 244 0 0 -17 463 0 462 464 459 75 243 241 0 0
 -17 246 0 451 86 40 75 464 244 0 463 +15 451 954 0 246 413 0 17 86 0 451 466 24
6 84 77 231 0 467 -17 40 0 451 246 466 26 36 229 0 464 +17 466 0 451 40 86 71 25
6 254 0 258 -17 36 0 35 461 33 71 40 229 0 466 -15 35 942 0 33 440 0 17 461 0 35
 37 36 64 258 240 0 250 -17 37 0 35 33 461 69 80 226 0 239 +17 258 0 468 256 250
 71 461 240 0 0 +17 250 0 468 258 253 64 460 232 0 0 +15 468 957 0 258 401 0 17
 253 0 468 250 256 81 467 251 0 460 +17 460 0 455 74 80 81 250 232 0 0 -17 256 0
 468 253 258 84 466 254 0 0 +17 467 0 453 77 83 84 253 251 0 256 -15 453 950 0 2
43 450 0 17 77 0 453 243 467 75 86 231 0 246 +17 83 0 453 467 243 81 74 234 0 25
3 -17 243 0 453 83 77 72 463 241 0 459 +14 18 88 457 ?422 433 462 5 6 -0 0 422 4
33 22 15 465 87 0 206 18 0 17 206 0 465 469 199 59 66 204 0 0 +17 469 0 465 470
 206 42 202 200 0 0 -17 199 0 465 206 470 63 471 197 0 0 +17 66 0 441 52 68 63 2
06 204 0 220 -15 441 549 0 41 436 0 17 52 0 441 41 66 50 220 218 0 228 -17 68 0
 441 66 41 59 191 189 0 202 -17 220 0 426 471 211 63 52 218 0 199 +15 426 302 0
 211 422 0 17 471 0 426 223 220 60 199 197 0 470 -17 211 0 426 220 223 50 472 20
9 0 0 +17 223 0 426 211 471 53 62 221 0 472 +17 472 0 416 173 215 53 211 209 0 0
 -17 173 0 416 169 472 157 55 216 0 0 +17 215 0 416 472 169 50 473 212 0 211 +17
 169 0 416 215 173 121 159 170 0 473 -17 473 0 444 168 228 121 215 212 0 0 -15 4
44 1383 0 168 433 0 17 168 0 444 183 473 47 23 10 0 178 -17 228 0 444 473 183 50
 41 224 0 215 +17 183 0 444 228 168 34 178 24 0 191 -17 41 0 441 68 52 34 228 22
4 0 183 -17 191 0 429 182 202 34 68 189 0 180 +15 429 247 0 202 425 0 17 182 0 4
29 196 191 56 180 207 0 0 -17 202 0 429 191 196 59 469 200 0 206 +17 180 0 176 1
78 177 34 182 207 0 0 +17 196 0 429 202 182 42 58 192 0 469 +17 58 0 437 187 46
 56 196 192 0 185 -15 437 664 0 46 428 0 17 187 0 437 62 58 53 185 188 0 223 +17
 46 0 437 58 62 42 470 203 0 196 +17 62 0 437 46 187 60 223 221 0 471 -17 470 0
 465 199 469 60 46 203 0 0 -17 23 0 162 159 49 121 168 10 0 169 +17 55 0 171 185
 163 53 173 216 0 187 -81 1 457 1774 402 18 474 0 454 475 476 80 1 402 477 478 9
000 1 1 1 1 1 1 1 1 0 FFFFTFTFFFFFFF1 81 1 474 1641 479 18 0 457 480 481 482 81
 1 475 1776 402 362 483 0 457 484 485 82 1 476 -1910177567 14 362 1195 475 ?365
 401 360 5 486 -395 395 365 401 22 81 3 483 1775 487 362 488 475 456 489 490 0 0
 81 1 484 1778 402 365 489 0 475 491 492 82 1 485 -800194333 14 365 1199 484 ?37
3 362 364 5 410 -0 0 373 362 22 81 3 489 1777 487 365 493 484 483 494 495 0 0 81
 1 491 1780 402 373 494 0 484 496 497 82 1 492 -800522013 14 373 1203 491 ?376 3
65 371 5 498 +389 389 376 365 22 81 3 494 1779 487 373 499 491 489 500 501 0 0 8
1 1 496 1782 402 376 500 0 491 502 503 82 1 497 -800718621 14 376 1207 496 ?379
 373 375 5 504 -359 359 379 373 22 81 3 500 1781 487 376 505 496 494 506 507 0 0
 81 1 502 1784 402 379 506 0 496 508 509 82 1 503 -801046301 14 379 1211 502 ?38
5 376 377 5 510 +0 0 385 376 22 81 3 506 1783 487 379 511 502 500 512 513 0 0 81
 1 508 1786 402 385 512 0 502 514 515 82 1 509 -801177373 14 385 1215 508 ?389 3
79 383 5 516 +349 349 389 379 22 81 3 512 1785 487 385 517 508 506 518 519 0 0 8
1 1 514 1788 402 389 518 0 508 520 521 82 1 515 -801308445 14 389 1219 514 ?392
 385 387 5 498 +373 373 392 385 22 81 3 518 1787 487 389 522 514 512 523 524 0 0
 81 1 520 1790 402 392 523 0 514 525 526 82 1 521 -801439517 14 392 1223 520 ?39
5 389 390 5 527 +0 0 395 389 22 81 3 523 1789 487 392 528 520 518 529 530 0 0 81
 1 525 1792 402 395 529 0 520 531 532 82 1 526 -801636125 14 395 1227 525 ?349 3
92 394 5 486 -362 362 349 392 22 81 3 529 1791 487 395 533 525 523 534 535 0 0 8
1 1 531 1794 402 349 534 0 525 536 537 82 1 532 -801963805 14 349 1231 531 ?356
 395 347 5 516 +385 385 356 395 22 81 3 534 1793 487 349 538 531 529 539 540 0 0
 81 1 536 1796 402 356 539 0 531 541 542 82 1 537 -802160413 14 356 1235 536 ?35
9 349 355 5 543 -0 0 359 349 22 81 3 539 1795 487 356 544 536 534 545 546 0 0 81
 1 541 1798 402 359 545 0 536 547 548 82 1 542 -802422557 14 359 1239 541 ?408 3
56 27 5 504 -376 376 408 356 22 81 3 545 1797 487 359 549 541 539 550 551 0 0 81
 1 547 1800 402 408 550 0 541 0 552 82 1 548 -802684701 14 408 1243 547 ?352 359
 553 5 554 -0 0 352 359 22 81 3 550 1799 487 408 555 547 545 0 556 0 0 82 1 552
 -803077917 80 3 487 557 558 9000 0 0 0 0 3 5 0 0 0 FFFFTFFFFFFFFF1 1 1 81 1 555
 1663 479 408 0 550 549 559 560 82 6 556 0 -208375745 31116812 0 0 0 80 1 479 0
 561 8001 0 0 0 0 3 5 0 0 0 FFFFTFTFFFFFFF2 81 1 549 1662 479 359 0 545 544 555
 562 81 1 559 1664 479 352 0 563 555 564 565 83 3 560 .792156862745098 .81960784
3137255 .933333333333333 81 3 563 1754 487 352 559 407 566 567 568 0 0 81 1 564
 1665 479 398 0 403 559 569 570 83 3 565 .792156862745098 .819607843137255 .9333
33333333333 81 3 403 1750 487 398 564 399 0 566 571 0 0 81 1 569 1666 479 166 0
 566 564 0 572 83 3 570 .792156862745098 .819607843137255 .933333333333333 81 3
 566 1752 487 166 569 404 403 563 573 0 0 83 3 572 .792156862745098 .81960784313
7255 .933333333333333 81 1 404 1753 402 166 566 0 399 407 574 82 6 573 0 1663377
171 31116822 0 0 0 81 1 407 1755 402 352 563 0 404 412 575 82 1 574 -278724331 8
1 1 412 1757 402 401 567 0 407 415 576 82 1 575 -823459613 81 3 567 1756 487 401
 577 412 563 578 579 0 0 82 1 576 -1019281181 81 1 577 1650 479 401 0 567 580 48
8 581 81 3 578 1766 487 440 582 446 567 583 584 0 0 82 6 579 0 -208375745 311168
12 0 0 0 81 1 582 1646 479 440 0 578 585 586 587 81 1 446 1767 402 440 578 0 443
 449 588 81 3 583 1768 487 413 580 449 578 589 590 0 0 82 6 584 0 -208515684 311
16812 0 0 0 81 1 580 1649 479 413 0 583 591 577 592 81 1 449 1769 402 413 583 0
 446 452 593 81 3 589 1770 487 450 591 452 583 456 594 0 0 82 6 590 0 -208515684
 31116812 0 0 0 81 1 591 1648 479 450 0 589 586 580 595 81 1 452 1771 402 450 58
9 0 449 454 596 81 3 456 1772 487 447 586 454 589 483 597 0 0 82 6 594 0 -208515
684 31116812 0 0 0 81 1 586 1647 479 447 0 456 582 591 598 82 6 597 0 -208515684
 31116812 0 0 0 83 3 598 .792156862745098 .819607843137255 .933333333333333 82 1
 596 -1012596511 83 3 595 .792156862745098 .819607843137255 .933333333333333 82
 1 593 -1012465439 83 3 592 .792156862745098 .819607843137255 .933333333333333 8
1 1 443 1765 402 433 480 0 439 446 599 82 1 588 -1012334367 81 1 480 1640 479 43
3 0 443 600 474 601 81 1 439 1764 402 436 585 0 435 443 602 82 1 599 -283442923
 81 1 585 1645 479 436 0 439 603 582 604 81 1 435 1763 402 428 603 0 432 439 605
 82 1 602 641728694 81 1 603 1644 479 428 0 435 606 585 607 81 1 432 1762 402 18
6 600 0 427 435 608 82 1 605 637599926 81 1 600 1639 479 186 0 432 609 480 610 8
1 1 427 1761 402 425 606 0 424 432 611 82 1 608 -278331115 81 1 606 1643 479 425
 0 427 481 603 612 81 1 424 1760 402 422 481 0 418 427 613 82 1 611 -578027338 8
1 1 481 1642 479 422 0 424 474 606 614 81 1 418 1759 402 179 609 0 415 424 615 8
2 1 613 -578420554 81 1 609 1638 479 179 0 418 417 600 616 82 1 615 -277937899 8
1 1 417 1637 479 16 0 415 0 609 617 83 3 616 .792156862745098 .819607843137255 .
933333333333333 83 3 617 .792156862745098 .819607843137255 .933333333333333 83 3
 614 .792156862745098 .819607843137255 .933333333333333 83 3 612 .79215686274509
8 .819607843137255 .933333333333333 83 3 610 .792156862745098 .819607843137255 .
933333333333333 83 3 607 .792156862745098 .819607843137255 .933333333333333 83 3
 604 .792156862745098 .819607843137255 .933333333333333 83 3 601 .79215686274509
8 .819607843137255 .933333333333333 83 3 587 .792156862745098 .819607843137255 .
933333333333333 81 1 488 1651 479 362 0 483 577 493 618 83 3 581 .79215686274509
8 .819607843137255 .933333333333333 81 1 493 1652 479 365 0 489 488 499 619 83 3
 618 .792156862745098 .819607843137255 .933333333333333 81 1 499 1653 479 373 0
 494 493 505 620 83 3 619 .792156862745098 .819607843137255 .933333333333333 81
 1 505 1654 479 376 0 500 499 511 621 83 3 620 .792156862745098 .819607843137255
 .933333333333333 81 1 511 1655 479 379 0 506 505 517 622 83 3 621 .792156862745
098 .819607843137255 .933333333333333 81 1 517 1656 479 385 0 512 511 522 623 83
 3 622 .792156862745098 .819607843137255 .933333333333333 81 1 522 1657 479 389
 0 518 517 528 624 83 3 623 .792156862745098 .819607843137255 .933333333333333 8
1 1 528 1658 479 392 0 523 522 533 625 83 3 624 .792156862745098 .81960784313725
5 .933333333333333 81 1 533 1659 479 395 0 529 528 538 626 83 3 625 .79215686274
5098 .819607843137255 .933333333333333 81 1 538 1660 479 349 0 534 533 544 627 8
3 3 626 .792156862745098 .819607843137255 .933333333333333 81 1 544 1661 479 356
 0 539 538 549 628 83 3 627 .792156862745098 .819607843137255 .933333333333333 8
3 3 628 .792156862745098 .819607843137255 .933333333333333 82 6 571 0 -208375745
 31116812 0 0 0 82 6 568 0 -208375745 31116812 0 0 0 83 3 562 .792156862745098 .
819607843137255 .933333333333333 79 15 561 SDL/TYSA_COLOUR79 18 558 DOWNSTREAM_F
ACE_ID15 553 1246 0 629 408 630 51 554 1268 0 408 409 504 0 -.0095 5e-4 -.0095 0
 1 0 .00265 0 0 1 50 409 1270 0 352 406 554 0 +0 5e-4 0 0 -1 0 0 0 -1 50 504 126
7 0 359 554 543 0 +.01015 5e-4 0 1 0 0 0 0 -1 50 543 1266 0 356 504 516 0 +0 5e-
4 -.00745 0 0 1 1 0 0 50 516 1265 0 349 543 486 0 +.00885 5e-4 0 1 0 0 0 0 -1 50
 486 1264 0 395 516 527 0 +0 5e-4 -.00885 0 0 1 1 0 0 50 527 1263 0 392 486 498
 0 +.00745 5e-4 0 1 0 0 0 0 -1 50 498 1262 0 389 527 510 0 +0 5e-4 -.01015 0 0 1
 1 0 0 50 510 1261 0 379 498 410 0 +0 5e-4 -.01155 0 0 1 1 0 0 50 410 1260 0 365
 510 400 0 +.01155 5e-4 0 1 0 0 0 0 -1 53 406 1449 0 166 0 409 0 -.0095 .11925 -
.0095 .11275 0 -1 1545410669021655e-32 -.707106781186548 109277036378325e-31 .70
7106781186548 17 629 0 553 629 629 0 314 282 0 0 -15 630 1247 0 285 408 0 17 285
 0 630 285 285 0 631 283 0 0 +17 631 0 414 631 631 0 285 283 0 0 -15 414 1020 0
 631 401 468 17 314 0 353 314 314 0 629 282 0 0 +15 353 1252 0 314 352 0 82 6 55
1 0 -208375745 31116812 0 0 0 82 6 546 0 -208375745 31116812 0 0 0 82 6 540 0 -2
08375745 31116812 0 0 0 82 6 535 0 -208375745 31116812 0 0 0 82 6 530 0 -2083757
45 31116812 0 0 0 82 6 524 0 -208375745 31116812 0 0 0 82 6 519 0 -208375745 311
16812 0 0 0 82 6 513 0 -208375745 31116812 0 0 0 82 6 507 0 -208375745 31116812
 0 0 0 82 6 501 0 -208375745 31116812 0 0 0 82 6 495 0 -208375745 31116812 0 0 0
 82 6 490 0 -208375745 31116812 0 0 0 83 3 482 .792156862745098 .819607843137255
 .933333333333333 79 14 478 SWEntUnchanged82 1 458 -1012727583 82 1 419 -2775446
83 82 1 405 -793509661 17 93 0 355 32 351 91 129 276 0 348 +19 17 100 0 1 0 9 5
 S0 74 20 15 12 0 0 547 550 632 633 634 635 636 637 638 13 569 2 0 0 0 0 0 0 0 0
 81 5 632 1079 639 1 0 633 0 0 640 0 0 0 0 81 2 633 1332 641 1 632 634 0 0 0 642
 81 2 634 1362 643 1 633 635 0 0 0 644 81 2 635 1363 645 1 634 636 0 0 646 0 81
 1 636 1497 647 1 635 637 0 0 648 81 2 637 1529 649 1 636 638 0 0 0 650 81 2 638
 1532 651 1 637 13 0 0 0 0 81 2 13 1535 652 1 638 2 0 0 653 0 80 2 652 654 655 8
004 0 0 0 0 3 5 0 0 0 FFTFFFFFFFFFFF2 3 83 1 653 1 79 16 655 SDL/TYSA_DENSITY80
 2 651 656 657 9000 0 0 0 0 3 5 0 0 0 FFTFFFFFFFFFFF9 1 79 16 657 BODY_RECIPE_20
0180 2 649 658 659 9000 0 0 0 0 3 5 0 0 0 FFTFFFFFFFFFFF9 1 82 1 650 1 79 24 659
 BODY_IN_LIGHTWEIGHT_PERM80 1 647 660 661 9000 1 1 1 1 1 1 1 1 0 FFTFFFFFFFFFFF1
 82 1 648 10259833 79 10 661 BODY_MATCH80 2 645 662 663 9000 0 0 0 0 3 5 0 0 0 F
FTFTTTFFTFFFF10 10 98 16 646 1042 1099 1088 1077 1079 45 1055 1086 1074 1077 108
8 1085 1091 1090 1100 51 79 23 663 SWIMPLICITBODYNAME_ID_U80 2 643 664 665 9000
 0 0 0 0 3 5 0 0 0 FFTFFFFFFFFFFF9 1 82 1 644 235 79 30 665 LAST_BODY_MODIFYING_
FEATURE_ID80 2 641 666 667 9000 0 0 0 0 3 5 0 0 0 FFTFFFFFFFFFFT9 1 82 1 642 173
 79 19 667 ENT_TIME_STAMP_200180 5 639 668 669 9000 0 0 0 0 3 6 0 0 0 FFTTTTTTFT
TFTT2 2 2 2 2 83 1 640 1 79 19 669 BODY_SCALING_FACTOR80 2 12 670 671 9000 0 0 0
 0 3 5 0 0 0 FFTFFFFFFFFFFF9 1 82 1 14 111 79 12 671 ATOM_ID_20011 0 
