**ABCDEFGHIJKLMNOPQRSTUVWXYZabcdefghijklmnopqrstuvwxyz**************************
**PARASOLID !"#$%&'()*+,-./:;<=>?@[\]^_`{|}~0123456789**************************
**PART1;
MC=AMD64;
MC_MODEL=Intel64 Family 6 Model 42 Stepping 7, GenuineIntel;
MC_ID=unknown;
OS=Windows_NT;
OS_RELEASE=unknown;
FRU=Parasolid Version 35.1, build 210,  4-20-2023;
APPL=SOLIDWORKS 2024-2023282;
SITE=;
USER=unknown;
FORMAT=text;
GUISE=transmit;
KEY=Широкая кнопка~;
FILE=Широкая кнопка~.x_t;
DATE=Fri Jul  5 18:08:44 2024;
**PART2;
SCH=SCH_3501210_35102;
USFLD_SIZE=0;
**PART3;
**END_OF_HEADER*****************************************************************
T51 : TRANSMIT FILE created by modeller version 350121017 SCH_3300000_320010 12
 1 2570 2 3 0 0 0 0 0 0 1e3 1e-8 0 4 0 1 0 1 1 5 6 7 8 0 0 9 10 11 0 0 0 0 0 0 0
 81 2 2 2508 12 1 13 0 0 0 0 14 70 3 0 4 T1 0 0 12 20 1 15 15 13 5 99 0 1 0 16 0
 0 17 0 50 6 93 0 18 19 0 0 +.019 0 0 0 1 0 0 0 1 31 7 1380 0 10 20 0 0 -.061609
0670170828 .0697463863337714 -.0095 .724999433594414 -.688749461914693 0 .688749
461914693 .724999433594414 0 .0868711682239508 29 8 1028 0 11 21 0 .010085 .0045
 -.0074375 19 9 33 0 1 17 0 22 V0 16 10 1378 0 ?23 0 24 7 0 0 1 18 11 1026 0 25
 0 26 8 ?1 17 25 0 27 28 29 11 30 31 0 32 +18 26 394 0 33 11 34 21 ?1 17 33 0 35
 36 37 26 38 39 0 40 +18 34 230 0 41 26 42 43 ?1 29 21 396 0 26 43 8 .0001000000
000000032 .005 -.0189 29 43 368 0 34 44 21 .019 0 -.019 29 44 748 0 42 45 43 .00
2 .007 -.017 18 42 518 0 46 34 47 44 ?1 29 45 755 0 47 48 44 1e-4 .005 -99999999
9999951e-19 18 47 510 0 49 42 50 45 ?1 29 48 761 0 50 51 45 .0189 .005 -99999999
9999955e-19 18 50 626 0 52 47 53 48 ?1 29 51 762 0 53 54 48 .0189 .005 -.0189 18
 53 625 0 55 50 56 51 ?1 29 54 764 0 56 57 51 .019 3469446951953615e-33 0 18 56
 628 0 58 53 59 54 ?1 29 57 978 0 60 61 54 .0175 0 -.0015 18 60 932 0 62 63 64 5
7 ?1 29 61 979 0 64 65 57 .0175 0 -.0175 18 64 934 0 66 60 67 61 ?1 29 65 981 0
 59 68 61 .0015 .0045 -.0015 18 59 927 0 69 56 70 65 ?1 29 68 982 0 70 71 65 .01
75 .0045 -.0015 18 70 929 0 72 59 73 68 ?1 29 71 983 0 73 74 68 .0175 .0045 -.01
75 18 73 931 0 75 70 63 71 ?1 29 74 984 0 63 76 71 .0015 .0045 -.0175 18 63 933
 0 77 73 60 74 ?1 29 76 1298 0 78 79 74 .010085 .0045 -.008915 18 78 1185 0 28 8
0 81 76 ?1 29 79 1300 0 81 82 76 .008915 .0045 -.0074375 18 81 1184 0 83 78 84 7
9 ?1 29 82 1301 0 84 85 79 .008915 .0045 -.008915 18 84 1182 0 86 81 87 82 ?1 29
 85 1302 0 87 88 82 .0074375 .0045 -.008915 18 87 1180 0 89 84 90 85 ?1 29 88 13
03 0 90 91 85 .0074375 .0045 -.010085 18 90 1179 0 92 87 93 88 ?1 29 91 1304 0 9
3 94 88 .008915 .0045 -.010085 18 93 1177 0 95 90 96 91 ?1 29 94 1305 0 96 97 91
 .008915 .0045 -.0115625 18 96 1175 0 98 93 99 94 ?1 29 97 1306 0 99 100 94 .010
085 .0045 -.0115625 18 99 1173 0 101 96 102 97 ?1 29 100 1307 0 102 103 97 .0100
85 .0045 -.010085 18 102 1171 0 104 99 105 100 ?1 29 103 1308 0 105 106 100 .011
5625 .0045 -.010085 18 105 1170 0 107 102 108 103 ?1 29 106 1309 0 108 109 103 .
0115625 .0045 -.008915 18 108 1191 0 110 105 111 106 ?1 29 109 1310 0 67 112 106
 .010085 5e-4 -.008915 18 67 1190 0 113 64 114 109 ?1 29 112 1311 0 114 115 109
 .010085 5e-4 -.0074375 18 114 1189 0 116 67 117 112 ?1 29 115 1312 0 117 118 11
2 .008915 5e-4 -.0074375 18 117 1181 0 119 114 120 115 ?1 29 118 1313 0 120 121
 115 .008915 5e-4 -.008915 18 120 1188 0 122 117 123 118 ?1 29 121 1314 0 123 12
4 118 .0074375 5e-4 -.008915 18 123 1178 0 125 120 126 121 ?1 29 124 1315 0 126
 127 121 .0074375 5e-4 -.010085 18 126 1176 0 128 123 129 124 ?1 29 127 1316 0 1
29 130 124 .008915 5e-4 -.010085 18 129 1174 0 131 126 132 127 ?1 29 130 1317 0
 132 133 127 .008915 5e-4 -.0115625 18 132 1172 0 134 129 135 130 ?1 29 133 1318
 0 135 136 130 .010085 5e-4 -.0115625 18 135 1187 0 137 132 138 133 ?1 29 136 13
19 0 138 139 133 .010085 5e-4 -.010085 18 138 1169 0 140 135 141 136 ?1 29 139 1
320 0 141 142 136 .0115625 5e-4 -.010085 18 141 1186 0 143 138 80 139 ?1 29 142
 1321 0 80 144 139 .0115625 5e-4 -.008915 18 80 1168 0 145 141 78 142 ?1 29 144
 1456 0 111 146 142 .002 .007 -.002 18 111 1410 0 23 108 147 144 ?1 29 146 1457
 0 147 148 144 .017 .007 -.0020000000000001 18 147 1409 0 149 111 150 146 ?1 29
 148 1458 0 150 151 146 .017 .007 -.017 18 150 1411 0 152 147 153 148 ?1 29 151
 1676 0 153 154 148 9e-5 .0045 -89999999999998e-18 18 153 1590 0 155 150 156 151
 ?1 29 154 1677 0 156 157 151 9e-5 .0045 -.01891 18 156 1602 0 37 153 158 154 ?1
 29 157 1690 0 158 159 154 -.0095 0 -.019 18 158 1593 0 160 156 161 157 ?1 29 15
9 1855 0 162 163 157 .0015 .0035 -.0015 18 162 1808 0 164 165 166 159 ?1 29 163
 1856 0 166 167 159 .0015 .0035 -.0175 18 166 1810 0 168 162 169 163 ?1 29 167 1
859 0 161 170 163 -.008 .0035 -.0015 18 161 1805 0 171 158 172 167 ?1 29 170 186
0 0 172 173 167 -.008 .0035 -.0175 18 172 1807 0 174 161 175 170 ?1 29 173 1861
 0 175 176 170 -.008 0 -.0175 18 175 1809 0 177 172 165 173 ?1 29 176 1862 0 165
 178 173 -.008 0 -.0015 18 165 1811 0 179 175 162 176 ?1 29 178 2017 0 169 180 1
76 -.0094 .0045 -899999999999963e-19 18 169 1945 0 181 166 182 178 ?1 29 180 201
8 0 182 183 178 -.0094 .0045 -.01891 18 182 1944 0 184 169 185 180 ?1 29 183 201
9 0 185 0 180 -.0095 3469446951953615e-33 0 18 185 1943 0 186 182 0 183 ?1 17 18
6 0 187 181 160 185 188 189 0 190 -15 187 1962 0 184 191 0 17 181 0 187 184 186
 169 190 192 0 193 -17 160 0 187 186 184 158 194 195 0 196 -17 188 0 197 198 199
 158 186 189 0 0 +16 189 1552 0 ?188 200 201 202 0 0 1 17 190 0 203 204 205 185
 181 192 0 199 +15 203 302 0 205 206 0 17 204 0 203 207 190 56 199 208 0 209 -17
 205 0 203 190 210 169 155 211 0 0 -16 192 1914 0 ?190 212 195 213 0 0 1 17 199
 0 197 188 209 185 204 208 0 0 +15 197 879 0 188 18 0 17 209 0 197 199 198 56 41
 214 0 0 -16 208 82 0 ?199 215 216 217 0 0 1 16 215 397 0 ?218 39 208 219 0 0 1
 16 216 81 0 ?196 208 214 220 0 0 1 30 217 98 0 208 220 219 0 +.019 0 0 -1 0 0 3
0 220 97 0 216 221 217 0 +.019 0 -.019 -1 0 0 30 219 399 0 215 217 222 0 +.019 0
 -.019 .01999200479680215 -.999600239840112 -.0199920047968021 30 222 404 0 39 2
19 223 0 +759392486011576e-20 .0003796962430055935 -.0189924060751399 .019992004
79680215 .999600239840112 .0199920047968021 16 39 1500 0 ?33 224 215 222 0 0 1 3
0 223 415 0 224 222 20 0 +.01893217468805705 .00496613190730838 -.01893217468805
705 .567227362325205 -.597081434026533 -.567227362325206 16 224 413 0 ?225 24 39
 223 0 0 1 30 20 420 0 24 223 7 0 +.00618101604278074 .01140106951871658 -.01281
898395721926 .567227362325205 .597081434026533 .567227362325206 16 24 418 0 ?226
 10 224 20 0 0 1 17 226 0 227 228 229 42 230 24 0 0 +15 227 1388 0 228 231 0 17
 228 0 227 225 226 150 46 232 0 233 -17 229 0 227 226 225 26 36 234 0 0 +17 230
 0 235 236 237 26 226 24 0 229 -15 235 1379 0 237 238 0 17 236 0 235 239 230 47
 40 240 0 241 +17 237 0 235 230 239 42 23 10 0 226 -17 239 0 235 237 236 111 241
 242 0 0 -17 23 0 243 149 46 111 237 10 0 244 +15 243 1415 0 152 245 0 17 149 0
 243 152 23 147 244 246 0 247 +17 46 0 243 23 152 42 228 232 0 237 +17 244 0 248
 241 249 111 149 246 0 239 -15 248 1392 0 244 16 0 17 241 0 248 250 244 47 239 2
42 0 251 +17 249 0 248 244 250 147 52 252 0 0 +16 246 1400 0 ?149 253 232 254 0
 0 1 16 253 1398 0 ?152 255 246 256 0 0 1 16 232 1402 0 ?46 246 257 258 0 0 1 31
 254 1448 0 246 258 256 0 -.0095 .0697463863337713 -.0616090670170828 0 -.688749
461914693 -.724999433594414 0 .724999433594414 -.688749461914693 .08687116822395
07 31 258 1449 0 232 259 254 0 -.0095 .0697463863337714 .0426090670170828 0 -.68
8749461914693 .724999433594414 0 -.724999433594414 -.688749461914693 .0868711682
239508 31 256 1447 0 253 254 260 0 --.0426090670170828 .0697463863337715 -.0095
 -.724999433594415 -.688749461914692 0 .688749461914692 -.724999433594415 0 .086
8711682239509 30 260 1297 0 261 256 262 0 +37491054032323e-31 5e-4 -.008915 1 0
 420539024479226e-30 16 261 1129 0 ?263 264 265 260 266 266 1 30 262 1296 0 264
 260 267 0 +.0115625 5e-4 0 0 0 -1 16 264 1132 0 ?143 268 261 262 0 0 1 30 267 1
295 0 268 262 269 0 +0 5e-4 -.010085 1 0 0 16 268 1086 0 ?270 271 264 267 272 27
2 1 30 269 1294 0 271 267 273 0 +.010085 5e-4 0 0 0 -1 16 271 1135 0 ?137 274 26
8 269 275 275 1 30 273 1293 0 274 269 276 0 +0 5e-4 -.0115625 1 0 0 16 274 1094
 0 ?277 278 271 273 0 0 1 30 276 1292 0 278 273 279 0 +.008915 5e-4 0 0 0 -1 16
 278 1098 0 ?280 272 274 276 281 281 1 30 279 1291 0 282 276 283 0 +.0074375 5e-
4 0 0 0 -1 16 282 1106 0 ?284 266 272 279 0 0 1 30 283 1290 0 285 279 286 0 +0 5
e-4 -.0074375 1 0 0 16 285 1141 0 ?116 275 281 283 0 0 1 31 286 1289 0 287 283 2
88 0 +.0095 5e-4 -.0095 0 -1 0 0 0 -1 .00265 16 287 1147 0 ?289 290 275 286 0 0
 1 30 288 1288 0 255 286 291 0 +37491054032323e-31 .0045 -.008915 1 0 4205390244
79226e-30 16 255 1078 0 ?292 293 253 288 294 294 1 30 291 1287 0 293 288 295 0 +
.0115625 .0045 0 0 0 -1 16 293 1082 0 ?296 297 255 291 0 0 1 30 295 1286 0 297 2
91 298 0 +0 .0045 -.010085 1 0 0 16 297 1165 0 ?299 300 293 295 301 301 1 30 298
 1285 0 300 295 302 0 +.010085 .0045 0 0 0 -1 16 300 1090 0 ?303 304 297 298 305
 305 1 30 302 1284 0 304 298 306 0 +0 .0045 -.0115625 1 0 0 16 304 1162 0 ?307 3
08 300 302 0 0 1 30 306 1283 0 308 302 309 0 +.008915 .0045 0 0 0 -1 16 308 1159
 0 ?310 301 304 306 311 311 1 30 309 1282 0 312 306 313 0 +.0074375 .0045 0 0 0
 -1 16 312 1153 0 ?314 294 301 309 0 0 1 30 313 1281 0 315 309 316 0 +0 .0045 -.
0074375 1 0 0 16 315 1118 0 ?32 305 311 313 0 0 1 31 316 1280 0 265 313 317 0 +.
0095 .0045 -.0095 0 -1 0 0 0 -1 .00265 16 265 1126 0 ?318 261 305 316 0 0 1 30 3
17 1279 0 290 316 319 0 +.010085 5e-4 -.008915 0 1 0 16 290 1081 0 ?320 31 287 3
17 0 0 1 30 319 1278 0 31 317 321 0 +.010085 5e-4 -.0074375 0 1 0 16 31 1125 0 ?
25 322 290 319 0 0 1 30 321 1277 0 322 319 323 0 +.008915 5e-4 -.0074375 0 1 0 1
6 322 1121 0 ?83 324 31 321 0 0 1 30 323 1276 0 324 321 325 0 +.008915 5e-4 -.00
8915 0 1 0 16 324 1117 0 ?86 326 322 323 0 0 1 30 325 1275 0 326 323 327 0 +.007
4375 5e-4 -.008915 0 1 0 16 326 1113 0 ?89 328 324 325 0 0 1 30 327 1274 0 328 3
25 329 0 +.0074375 5e-4 -.010085 0 1 0 16 328 1109 0 ?92 330 326 327 0 0 1 30 32
9 1273 0 330 327 331 0 +.008915 5e-4 -.010085 0 1 0 16 330 1105 0 ?95 332 328 32
9 0 0 1 30 331 1272 0 332 329 333 0 +.008915 5e-4 -.0115625 0 1 0 16 332 1101 0
 ?98 334 330 331 0 0 1 30 333 1271 0 334 331 335 0 +.010085 5e-4 -.0115625 0 1 0
 16 334 1097 0 ?101 336 332 333 0 0 1 30 335 1270 0 336 333 337 0 +.010085 5e-4
 -.010085 0 1 0 16 336 1093 0 ?104 338 334 335 0 0 1 30 337 1269 0 338 335 339 0
 +.0115625 5e-4 -.010085 0 1 0 16 338 1089 0 ?107 340 336 337 0 0 1 30 339 1268
 0 340 337 341 0 +.0115625 5e-4 -.008915 0 1 0 16 340 1085 0 ?110 342 338 339 0
 0 1 30 341 976 0 343 339 344 0 +.0015 .0045 -.0015 1084202172485504e-31 0 -1 16
 343 899 0 ?345 346 347 341 0 0 1 30 344 975 0 346 341 348 0 +.0015 .0045 -.0175
 1 0 216840434497101e-30 16 346 911 0 ?349 350 343 344 0 0 1 30 348 974 0 350 34
4 351 0 +.0175 .0045 -.0015 0 0 1 16 350 907 0 ?352 353 346 348 0 0 1 30 351 973
 0 353 348 354 0 +.0015 .0045 -.0015 -1 0 0 16 353 903 0 ?355 356 350 351 0 0 1
 30 354 971 0 342 351 357 0 +.0015 0 -.0175 1 0 216840434497101e-30 16 342 918 0
 ?358 359 340 354 0 0 1 30 357 970 0 359 354 360 0 +.0175 0 -.0015 0 0 1 16 359
 921 0 ?361 347 342 357 0 0 1 30 360 969 0 347 357 362 0 +.0015 0 -.0015 -1 0 0
 16 347 924 0 ?179 343 359 360 0 0 1 30 362 968 0 363 360 364 0 +.0015 .0045 -.0
015 0 -1 0 16 363 906 0 ?365 366 367 362 0 0 1 30 364 967 0 367 362 368 0 +.0175
 .0045 -.0015 0 -1 0 16 367 910 0 ?62 363 369 364 0 0 1 30 368 966 0 369 364 370
 0 +.0175 .0045 -.0175 0 -1 0 16 369 914 0 ?66 367 356 368 0 0 1 30 370 965 0 35
6 368 371 0 +.0015 .0045 -.0175 0 -1 0 16 356 902 0 ?372 369 353 370 0 0 1 30 37
1 736 0 240 370 373 0 +1e-4 .005 -.019 0 0 1 16 240 475 0 ?236 374 366 371 0 0 1
 30 373 724 0 366 371 375 0 +.0189 .005 -.019 0 0 1 16 366 581 0 ?376 240 363 37
3 0 0 1 30 375 722 0 374 373 377 0 +.019 3469446951953615e-33 0 -.01999200479680
215 .999600239840112 -.01999200479680215 16 374 592 0 ?207 378 240 375 0 0 1 30
 377 717 0 378 375 379 0 +759392486011576e-20 .000379696243005597 -7593924860111
83e-20 -.01999200479680215 -.999600239840112 .01999200479680215 16 378 476 0 ?21
0 252 374 377 0 0 1 30 379 712 0 252 377 380 0 +.01893217468805705 .004966131907
30838 -67825311942957e-18 -.567227362325205 .597081434026533 -.567227362325206 1
6 252 582 0 ?249 242 378 379 0 0 1 30 380 709 0 242 379 381 0 +.0061810160427807
4 .01140106951871656 -.00618101604278074 -.567227362325205 -.597081434026532 .56
7227362325206 16 242 467 0 ?241 382 252 380 0 0 1 30 381 342 0 234 380 383 0 +.0
19 .005 -.0189 -1 0 0 16 234 392 0 ?229 214 382 381 0 0 1 30 383 330 0 382 381 2
21 0 +.019 .005 -1e-4 -1 0 0 16 382 424 0 ?251 234 242 383 0 0 1 30 221 11 0 214
 383 220 0 +.019 0 0 0 0 -1 16 214 9 0 ?41 216 234 221 0 0 1 17 41 0 384 55 58 3
4 209 214 0 218 +15 384 664 0 41 385 0 17 55 0 384 376 41 53 218 215 0 386 -17 5
8 0 384 41 376 56 207 374 0 204 -17 218 0 35 196 36 34 55 215 0 198 +15 35 1722
 0 196 387 0 17 196 0 35 194 218 158 198 216 0 188 +17 36 0 35 218 33 53 229 234
 0 0 -17 198 0 197 209 188 34 196 216 0 0 -17 194 0 35 37 196 182 160 195 0 388
 +17 37 0 35 33 194 156 388 200 0 389 +16 195 1915 0 ?194 192 390 391 0 0 1 17 3
88 0 392 193 389 182 37 200 0 0 -15 392 1892 0 193 393 0 17 193 0 392 155 388 16
9 184 390 0 205 +17 389 0 392 388 155 156 394 257 0 38 -16 200 1886 0 ?37 211 18
9 395 0 0 1 16 211 1889 0 ?155 257 200 396 0 0 1 30 395 1666 0 200 396 259 0 +-.
0095 .0045 -.01891 1 0 1084202172485504e-31 30 396 1667 0 211 202 395 0 +-.0095
 .0045 -89999999999999e-18 1 0 1084202172485504e-31 30 259 1660 0 257 395 258 0
 +9e-5 .0045 -.019 0 0 1 16 257 1575 0 ?394 232 211 259 0 0 1 17 394 0 397 49 38
 153 389 257 0 210 +15 397 549 0 38 398 0 17 49 0 397 40 394 47 210 378 0 236 -1
7 38 0 397 394 40 156 33 39 0 0 -17 210 0 203 205 251 153 49 378 0 0 +17 251 0 2
03 210 207 47 250 382 0 0 +17 207 0 203 251 204 50 58 374 0 250 +17 250 0 248 24
9 241 50 251 382 0 0 -17 40 0 397 38 49 26 236 240 0 230 -14 398 546 399 ?400 38
5 397 5 401 -0 0 400 385 22 81 1 399 2509 402 398 403 0 0 404 405 14 400 935 404
 ?406 398 407 5 408 -0 0 406 398 22 14 385 661 409 ?398 387 384 5 410 -0 0 398 3
87 22 50 401 702 0 398 411 410 0 +0 3469446951953615e-33 -.019 .999800059980007
 -.01999600119960005 0 .01999600119960005 .999800059980007 0 13 22 34 0 0 0 0 0
 0 9 16 14 16 1393 412 ?231 0 248 5 19 -0 0 231 0 22 81 1 412 2513 402 16 413 0
 409 414 415 14 231 1389 414 ?416 16 227 5 417 -0 0 416 16 22 50 19 318 0 16 418
 6 0 +.019 .005 -1e-4 0 -.688749461914693 -.724999433594414 0 .724999433594414 -
.688749461914693 50 418 319 0 206 419 19 0 +.019 3469446951953615e-33 0 0 -.0199
9600119960005 -.999800059980007 0 .999800059980007 -.01999600119960005 14 206 29
9 420 ?387 18 203 5 418 -0 0 387 18 22 50 419 324 0 387 417 418 0 +.019 0 -.019
 0 -.0199960011996 .999800059980007 0 -.999800059980007 -.0199960011996 14 387 2
44 421 ?385 206 35 5 419 -0 0 385 206 22 50 417 325 0 231 422 419 0 +.019 .005 -
.0189 0 -.688749461914693 .724999433594414 0 -.724999433594414 -.688749461914693
 50 422 696 0 416 410 417 0 +.0189 .005 -.019 -.724999433594415 -.68874946191469
2 0 .688749461914692 -.724999433594415 0 14 416 1385 423 ?238 231 424 5 422 -0 0
 238 231 22 50 410 697 0 385 401 422 0 +.019 3469446951953615e-33 -.019 -.999800
059980007 -.01999600119960005 0 .01999600119960005 -.999800059980007 0 81 1 423
 2519 402 416 425 0 421 426 427 14 238 1381 426 ?18 416 235 5 411 -0 0 18 416 22
 15 424 1384 0 247 416 0 17 247 0 424 52 233 147 152 253 0 249 -17 52 0 424 386
 247 50 249 252 0 376 -17 233 0 424 247 386 150 225 224 0 0 -17 152 0 243 46 149
 150 247 253 0 228 +17 386 0 424 233 52 53 376 366 0 225 -17 225 0 227 229 228 5
3 233 224 0 36 +17 376 0 384 58 55 50 386 366 0 207 +81 1 426 2520 402 238 428 0
 423 429 430 14 18 88 429 ?206 238 431 5 6 -0 0 206 238 22 50 411 703 0 238 408
 401 0 +1e-4 .005 -.019 .724999433594414 -.688749461914693 0 .688749461914693 .7
24999433594414 0 50 408 959 0 400 432 411 0 +.0015 .0045 -.0015 -1 0 -1084202172
485504e-31 -1084202172485504e-31 0 1 50 432 960 0 433 434 408 0 +.0015 .0045 -.0
175 216840434497101e-30 0 -1 -1 0 -216840434497101e-30 14 433 947 435 ?436 437 4
38 5 432 -0 0 436 437 22 50 434 961 0 437 439 432 0 +.0175 .0045 -.0015 1 0 0 0
 0 -1 14 437 943 440 ?433 406 441 5 434 -0 0 433 406 22 50 439 962 0 406 442 434
 0 +.0015 .0045 -.0015 0 0 1 1 0 0 14 406 939 443 ?437 400 444 5 439 -0 0 437 40
0 22 50 442 964 0 436 445 439 0 +0 .0045 0 0 -1 0 0 0 -1 14 436 951 446 ?447 433
 448 5 442 +449 449 447 433 22 50 445 1257 0 450 451 442 0 +.0115625 5e-4 0 1 0
 0 0 0 -1 14 450 1196 452 ?453 447 454 5 445 -0 0 453 447 22 50 451 1258 0 455 4
56 445 0 +0 5e-4 -.0115625 0 0 1 1 0 0 14 455 1208 457 ?458 459 460 5 451 +0 0 4
58 459 22 50 456 1259 0 461 462 451 0 +0 5e-4 -.010085 0 0 1 1 0 0 14 461 1216 4
63 ?464 458 465 5 456 +453 453 464 458 22 50 462 1260 0 464 466 456 0 +.0074375
 5e-4 0 1 0 0 0 0 -1 14 464 1220 467 ?468 461 469 5 462 +0 0 468 461 22 50 466 1
261 0 468 470 462 0 +37491054032323e-31 5e-4 -.008915 -420539024479226e-30 0 1 1
 0 420539024479226e-30 14 468 1224 471 ?472 464 473 5 466 -447 447 472 464 22 50
 470 1262 0 472 474 466 0 +.008915 5e-4 0 1 0 0 0 0 -1 14 472 1228 475 ?476 468
 477 5 470 +458 458 476 468 22 50 474 1263 0 476 478 470 0 +0 5e-4 -.0074375 0 0
 1 1 0 0 14 476 1232 479 ?480 472 481 5 474 -0 0 480 472 22 50 478 1264 0 480 48
2 474 0 +.010085 5e-4 0 1 0 0 0 0 -1 14 480 1236 483 ?484 476 27 5 478 -459 459
 484 476 22 51 482 1265 0 484 485 478 0 -.0095 5e-4 -.0095 0 1 0 .00265 0 0 1 14
 484 1240 486 ?487 480 488 5 482 -0 0 487 480 22 50 485 1267 0 487 489 482 0 +0
 5e-4 0 0 -1 0 0 0 -1 14 487 1245 490 ?449 484 491 5 485 +0 0 449 484 22 53 489
 1445 0 245 492 485 0 -.0095 .11925 -.0095 .11275 0 -1 1545410669021655e-32 -.70
7106781186548 109277036378325e-31 .707106781186548 14 245 1413 493 ?393 449 243
 5 489 +0 0 393 449 22 50 492 1655 0 393 494 489 0 +-.0095 .0045 -89999999999999
e-18 0 1 0 0 0 1 14 393 1614 495 ?496 245 392 5 492 +0 0 496 245 22 50 494 1840
 0 496 497 492 0 +-.008 .0035 -.0015 0 1 0 0 0 1 14 496 1817 498 ?499 393 500 5
 494 -0 0 499 393 22 50 497 1842 0 499 501 494 0 +-.008 -2015133172838205e-50 -8
67361737988403e-33 -1 134342211522547e-46 -1084202172485504e-31 -108420217248550
4e-31 0 1 14 499 1829 502 ?191 496 503 5 497 -0 0 191 496 22 50 501 1995 0 191 0
 497 0 +-.0094 .0045 -.019 .99975317783161 -.0222167372851468 0 .022216737285146
8 .99975317783161 0 14 191 1959 504 ?0 499 187 5 501 -0 0 0 499 22 81 1 504 2560
 402 191 505 0 502 506 507 80 1 402 508 509 9000 1 1 1 1 1 1 1 1 0 FFFFTFTFFFFFF
F1 81 3 505 2559 510 191 511 504 512 513 514 0 0 81 1 502 2558 402 499 512 0 498
 504 515 81 1 506 2562 402 449 513 0 504 516 517 82 1 507 446890321 14 449 1020
 506 ?245 487 518 5 442 +436 436 245 487 22 81 3 513 2561 510 449 519 506 505 52
0 521 0 0 81 1 516 2564 402 458 520 0 506 522 523 82 1 517 1587544387 14 458 121
2 516 ?461 455 524 5 470 +472 472 461 455 22 81 3 520 2563 510 458 525 516 513 5
26 527 0 0 81 1 522 2566 402 459 526 0 516 528 529 82 1 523 1579745603 14 459 12
04 522 ?455 453 530 5 478 -480 480 455 453 22 81 3 526 2565 510 459 531 522 520
 532 533 0 0 81 1 528 2568 402 453 532 0 522 534 535 82 1 529 1580007747 14 453
 1200 528 ?459 450 536 5 456 +461 461 459 450 22 81 3 532 2567 510 453 537 528 5
26 538 539 0 0 81 1 534 2570 402 447 538 0 528 0 540 82 1 535 1580335427 14 447
 1192 534 ?450 436 541 5 466 -468 468 450 436 22 81 3 538 2569 510 447 542 534 5
32 0 543 0 0 82 1 540 1580859715 80 3 510 544 545 9000 0 0 0 0 3 5 0 0 0 FFFFTFF
FFFFFFF1 1 1 81 1 542 2386 546 447 0 538 547 548 549 82 6 543 0 -1855666770 3111
7024 0 0 0 80 1 546 0 550 8001 0 0 0 0 3 5 0 0 0 FFFFTFTFFFFFFF2 81 1 547 2385 5
46 436 0 551 552 542 553 81 1 548 2387 546 450 0 554 542 537 555 83 3 549 .79215
6862745098 .819607843137255 .933333333333333 81 3 554 2531 510 450 548 452 551 5
56 557 0 0 81 1 537 2388 546 453 0 532 548 531 558 83 3 555 .792156862745098 .81
9607843137255 .933333333333333 81 1 531 2389 546 459 0 526 537 559 560 83 3 558
 .792156862745098 .819607843137255 .933333333333333 81 1 559 2390 546 455 0 556
 531 525 561 83 3 560 .792156862745098 .819607843137255 .933333333333333 81 3 55
6 2533 510 455 559 457 554 562 563 0 0 81 1 525 2391 546 458 0 520 559 564 565 8
3 3 561 .792156862745098 .819607843137255 .933333333333333 81 1 564 2392 546 461
 0 562 525 566 567 83 3 565 .792156862745098 .819607843137255 .933333333333333 8
1 3 562 2535 510 461 564 463 556 568 569 0 0 81 1 566 2393 546 464 0 568 564 570
 571 83 3 567 .792156862745098 .819607843137255 .933333333333333 81 3 568 2537 5
10 464 566 467 562 572 573 0 0 81 1 570 2394 546 468 0 572 566 574 575 83 3 571
 .792156862745098 .819607843137255 .933333333333333 81 3 572 2539 510 468 570 47
1 568 576 577 0 0 81 1 574 2395 546 472 0 576 570 578 579 83 3 575 .792156862745
098 .819607843137255 .933333333333333 81 3 576 2541 510 472 574 475 572 580 581
 0 0 81 1 578 2396 546 476 0 580 574 582 583 83 3 579 .792156862745098 .81960784
3137255 .933333333333333 81 3 580 2543 510 476 578 479 576 584 585 0 0 81 1 582
 2397 546 480 0 584 578 586 587 83 3 583 .792156862745098 .819607843137255 .9333
33333333333 81 3 584 2545 510 480 582 483 580 588 589 0 0 81 1 586 2398 546 484
 0 588 582 590 591 83 3 587 .792156862745098 .819607843137255 .933333333333333 8
1 3 588 2547 510 484 586 486 584 592 593 0 0 81 1 590 2399 546 487 0 592 586 519
 594 83 3 591 .792156862745098 .819607843137255 .933333333333333 81 3 592 2549 5
10 487 590 490 588 595 596 0 0 81 1 519 2400 546 449 0 513 590 597 598 83 3 594
 .792156862745098 .819607843137255 .933333333333333 81 1 597 2401 546 245 0 595
 519 599 600 83 3 598 .792156862745098 .819607843137255 .933333333333333 81 3 59
5 2551 510 245 597 493 592 601 602 0 0 81 1 599 2402 546 393 0 601 597 603 604 8
3 3 600 .792156862745098 .819607843137255 .933333333333333 81 3 601 2553 510 393
 599 495 595 605 606 0 0 81 1 603 2403 546 496 0 605 599 607 608 83 3 604 .79215
6862745098 .819607843137255 .933333333333333 81 3 605 2555 510 496 603 498 601 5
12 609 0 0 81 1 607 2404 546 499 0 512 603 511 610 83 3 608 .792156862745098 .81
9607843137255 .933333333333333 81 3 512 2557 510 499 607 502 605 505 611 0 0 81
 1 511 2405 546 191 0 505 607 0 612 83 3 610 .792156862745098 .819607843137255 .
933333333333333 83 3 612 .792156862745098 .819607843137255 .933333333333333 82 6
 611 0 -1086404987 31117036 0 0 0 81 1 498 2556 402 496 605 0 495 502 613 82 6 6
09 0 -1086404987 31117036 0 0 0 81 1 495 2554 402 393 601 0 493 498 614 82 1 613
 405209423 81 1 493 2552 402 245 595 0 490 495 615 82 1 614 -268500655 81 1 490
 2550 402 487 592 0 486 493 616 82 1 615 1617887558 81 1 486 2548 402 484 588 0
 483 490 617 82 1 616 1557594435 81 1 483 2546 402 480 584 0 479 486 618 82 1 61
7 1577976131 81 1 479 2544 402 476 580 0 475 483 619 82 1 618 1578369347 81 1 47
5 2542 402 472 576 0 471 479 620 82 1 619 1578631491 81 1 471 2540 402 468 572 0
 467 475 621 82 1 620 1578893635 81 1 467 2538 402 464 568 0 463 471 622 82 1 62
1 1579090243 81 1 463 2536 402 461 562 0 457 467 623 82 1 622 1579417923 81 1 45
7 2534 402 455 556 0 452 463 624 82 1 623 1579614531 81 1 452 2532 402 450 554 0
 446 457 625 82 1 624 1579876675 81 1 446 2530 402 436 551 0 443 452 626 82 1 62
5 1580532035 81 3 551 2529 510 436 547 446 627 554 628 0 0 81 1 443 2528 402 406
 627 0 440 446 629 82 1 626 -707788477 81 3 627 2527 510 406 630 443 631 551 632
 0 0 81 1 440 2526 402 437 631 0 435 443 633 82 1 629 -270204593 81 3 631 2525 5
10 437 634 440 635 627 636 0 0 81 1 435 2524 402 433 635 0 429 440 637 82 1 633
 -713293532 81 3 635 2523 510 433 552 435 638 631 639 0 0 81 1 429 2522 402 18 6
38 0 426 435 640 82 1 637 -270466737 81 3 638 2521 510 18 641 429 642 635 643 0
 0 82 1 640 -270728879 81 1 641 2376 546 18 0 638 428 644 645 81 3 642 2517 510
 387 646 421 647 638 648 0 0 82 6 643 0 -1086404987 31117036 0 0 0 81 1 646 2378
 546 387 0 642 644 649 650 81 1 421 2518 402 387 642 0 420 423 651 81 3 647 2515
 510 206 644 420 652 642 653 0 0 82 6 648 0 -1086275038 31117036 0 0 0 81 1 644
 2377 546 206 0 647 641 646 654 81 1 420 2516 402 206 647 0 414 421 655 81 3 652
 2510 510 400 656 404 0 647 657 0 0 82 6 653 0 -1086275038 31117036 0 0 0 81 1 6
56 2381 546 400 0 652 403 630 658 81 1 404 2511 402 400 652 0 399 409 659 82 6 6
57 0 -1086404987 31117036 0 0 0 81 1 409 2512 402 385 649 0 404 412 660 82 1 659
 -272498353 81 1 649 2379 546 385 0 409 646 403 661 82 1 660 637599926 81 1 403
 2380 546 398 0 399 649 656 662 83 3 661 .792156862745098 .819607843137255 .9333
33333333333 83 3 662 .792156862745098 .819607843137255 .933333333333333 81 1 630
 2382 546 406 0 627 656 634 663 83 3 658 .792156862745098 .819607843137255 .9333
33333333333 81 1 634 2383 546 437 0 631 630 552 664 83 3 663 .792156862745098 .8
19607843137255 .933333333333333 81 1 552 2384 546 433 0 635 634 547 665 83 3 664
 .792156862745098 .819607843137255 .933333333333333 83 3 665 .792156862745098 .8
19607843137255 .933333333333333 81 1 414 2514 402 231 666 0 412 420 667 82 1 655
 -271908527 81 1 666 2373 546 231 0 414 413 425 668 82 1 667 1618673990 81 1 413
 2372 546 16 0 412 0 666 669 81 1 425 2374 546 416 0 423 666 428 670 83 3 668 .7
92156862745098 .819607843137255 .933333333333333 81 1 428 2375 546 238 0 426 425
 641 671 83 3 670 .792156862745098 .819607843137255 .933333333333333 83 3 671 .7
92156862745098 .819607843137255 .933333333333333 83 3 669 .792156862745098 .8196
07843137255 .933333333333333 83 3 654 .792156862745098 .819607843137255 .9333333
33333333 82 1 651 -271777455 83 3 650 .792156862745098 .819607843137255 .9333333
33333333 83 3 645 .792156862745098 .819607843137255 .933333333333333 82 6 639 0
 -1086404987 31117036 0 0 0 82 6 636 0 1469981742 31116824 0 0 0 82 6 632 0 -108
6404987 31117036 0 0 0 82 6 628 0 -1855666770 31117024 0 0 0 82 6 606 0 -1086275
038 31117036 0 0 0 82 6 602 0 -1855284005 31117024 0 0 0 82 6 596 0 -1855666770
 31117024 0 0 0 82 6 593 0 -1855666770 31117024 0 0 0 82 6 589 0 -1855666770 311
17024 0 0 0 82 6 585 0 -1855666770 31117024 0 0 0 82 6 581 0 -1855666770 3111702
4 0 0 0 82 6 577 0 -1855666770 31117024 0 0 0 82 6 573 0 -1855666770 31117024 0
 0 0 82 6 569 0 -1855666770 31117024 0 0 0 82 6 563 0 -1855666770 31117024 0 0 0
 82 6 557 0 -1855666770 31117024 0 0 0 83 3 553 .792156862745098 .81960784313725
5 .933333333333333 79 15 550 SDL/TYSA_COLOUR79 18 545 DOWNSTREAM_FACE_ID15 541 1
195 0 292 447 0 17 292 0 541 672 320 108 673 255 0 674 +17 672 0 541 675 292 80
 110 340 0 0 -17 320 0 541 292 675 78 676 290 0 673 +17 673 0 518 677 674 78 292
 255 0 0 -17 674 0 518 673 299 108 296 293 0 0 -15 518 1024 0 674 449 0 17 299 0
 518 674 678 105 679 297 0 0 +17 296 0 454 680 110 105 674 293 0 299 +15 454 119
9 0 296 450 0 17 680 0 454 145 296 141 107 338 0 270 -17 110 0 454 296 145 108 6
72 340 0 292 +17 145 0 454 110 680 80 143 264 0 263 -17 143 0 491 681 263 141 14
5 264 0 680 +17 263 0 491 143 113 80 675 261 0 672 +15 491 1248 0 263 487 682 17
 113 0 491 263 116 67 29 275 0 676 +17 675 0 541 320 672 67 263 261 0 0 -17 116
 0 491 113 683 114 684 285 0 30 +17 29 0 27 25 676 114 113 275 0 0 -16 275 1144
 0 ?113 287 285 269 271 271 1 17 676 0 27 29 28 67 320 290 0 675 -15 27 1239 0 2
8 480 0 17 28 0 27 676 25 78 677 305 0 320 +17 677 0 518 685 673 11 28 305 0 0 -
16 305 1122 0 ?28 265 315 298 300 300 1 17 685 0 518 686 677 81 32 315 0 0 -17 6
86 0 518 687 685 84 688 311 0 0 +17 32 0 481 30 83 11 685 315 0 677 +15 481 1235
 0 32 476 0 17 30 0 481 684 32 114 25 31 0 29 -17 83 0 481 32 684 81 119 322 0 6
88 +17 684 0 481 83 30 117 116 285 0 683 -17 119 0 477 689 688 117 83 322 0 684
 -17 688 0 477 119 86 81 686 311 0 685 -15 477 1231 0 688 472 0 17 86 0 477 688
 689 84 690 324 0 691 +16 311 1150 0 ?686 315 294 306 308 308 1 16 294 1110 0 ?6
91 311 312 288 255 255 1 17 691 0 473 690 89 84 687 294 0 686 +15 473 1227 0 691
 468 0 17 690 0 473 692 691 120 86 324 0 689 -17 89 0 473 691 692 87 125 326 0 6
93 +17 687 0 518 314 686 87 691 294 0 0 -17 314 0 518 694 687 90 693 312 0 0 +17
 694 0 518 310 314 93 695 301 0 0 +17 693 0 469 125 92 87 314 312 0 687 -15 469
 1223 0 693 464 0 17 125 0 469 284 693 123 89 326 0 692 -17 92 0 469 693 284 90
 128 328 0 695 +17 284 0 469 92 125 126 696 282 0 0 +17 128 0 465 697 695 126 92
 328 0 698 -17 695 0 465 128 95 90 694 301 0 314 -15 465 1219 0 695 461 0 17 95
 0 465 695 697 93 131 330 0 699 +16 301 1156 0 ?694 312 308 295 297 297 1 17 697
 0 465 95 128 129 698 272 0 0 +17 131 0 524 280 699 129 95 330 0 700 -17 699 0 5
24 131 98 93 310 308 0 694 -15 524 1215 0 699 458 0 17 98 0 524 699 280 96 134 3
32 0 701 +17 310 0 518 307 694 96 699 308 0 0 +17 307 0 518 678 310 99 701 304 0
 0 +17 678 0 518 299 307 102 303 300 0 0 -17 701 0 460 134 101 96 307 304 0 310
 -15 460 1211 0 701 455 0 17 134 0 460 277 701 132 98 332 0 702 -17 101 0 460 70
1 277 99 703 334 0 303 +17 277 0 460 101 134 135 702 274 0 0 +17 703 0 530 704 3
03 135 101 334 0 277 -17 303 0 530 703 104 99 678 300 0 307 +15 530 1207 0 303 4
59 0 17 104 0 530 303 704 102 140 336 0 679 +17 704 0 530 104 703 138 137 271 0
 681 -17 140 0 536 270 679 138 104 336 0 704 -17 679 0 536 140 107 102 299 297 0
 678 -15 536 1203 0 679 453 0 17 107 0 536 679 270 105 680 338 0 296 +17 270 0 5
36 107 140 141 681 268 0 0 +17 681 0 491 137 143 138 270 268 0 0 -17 137 0 491 7
02 681 135 704 271 0 703 +17 702 0 491 700 137 132 277 274 0 280 -17 700 0 491 6
98 702 129 280 278 0 697 -17 280 0 524 98 131 132 700 278 0 0 +17 698 0 491 696
 700 126 697 272 0 284 -17 696 0 491 122 698 123 284 282 0 0 -16 272 1102 0 ?697
 282 278 267 268 268 1 17 122 0 491 683 696 120 692 266 0 690 +17 683 0 491 116
 122 117 689 281 0 0 -17 692 0 473 89 690 123 122 266 0 696 -16 266 1138 0 ?122
 281 282 260 261 261 1 16 281 1114 0 ?689 285 266 276 278 278 1 17 689 0 477 86
 119 120 683 281 0 0 +15 682 1249 0 289 487 0 17 289 0 682 289 289 0 705 287 0 0
 +17 705 0 488 705 705 0 289 287 0 0 -15 488 1243 0 705 484 706 15 706 1244 0 31
8 484 0 17 318 0 706 318 318 0 707 265 0 0 +17 707 0 448 707 707 0 318 265 0 0 -
15 448 1017 0 707 436 708 15 708 953 0 345 436 0 17 345 0 708 349 355 63 709 343
 0 0 +17 349 0 708 352 345 73 710 346 0 0 +17 355 0 708 345 352 59 711 353 0 0 +
17 709 0 407 365 77 59 345 343 0 355 -15 407 938 0 365 400 0 17 365 0 407 712 70
9 162 69 363 0 0 +17 77 0 407 709 712 63 372 356 0 710 -17 712 0 407 77 365 166
 713 212 0 372 -17 372 0 438 174 710 166 77 356 0 0 +17 710 0 438 372 75 63 349
 346 0 345 -15 438 950 0 358 433 0 17 75 0 438 710 358 73 66 369 0 714 -17 358 0
 438 75 715 64 177 342 0 716 +17 66 0 441 361 714 64 75 369 0 358 +17 714 0 441
 66 72 73 352 350 0 349 -15 441 946 0 361 437 0 17 72 0 441 714 361 70 62 367 0
 352 -17 352 0 708 355 349 70 714 350 0 711 +17 711 0 444 62 69 70 355 353 0 0 -
15 444 942 0 179 406 0 17 62 0 444 179 711 60 72 367 0 361 +17 69 0 444 711 164
 59 365 363 0 709 -17 164 0 444 69 717 162 171 201 0 713 +17 717 0 444 164 179 1
61 718 719 0 720 -17 171 0 500 721 713 161 164 201 0 717 -16 201 1784 0 ?164 189
 722 723 0 0 1 17 713 0 500 171 168 162 712 212 0 365 +15 500 1820 0 713 496 0 1
7 168 0 500 713 721 166 174 722 0 712 +16 212 1802 0 ?713 719 192 724 0 0 1 16 7
19 1777 0 ?718 725 212 726 0 0 1 30 724 1847 0 212 727 723 0 +.0015 .0035 -.0015
 -1084202172485504e-31 0 1 30 727 1851 0 728 729 724 0 +-.008 .0035 -.0015 -1084
202172485504e-31 0 1 30 723 1846 0 201 724 730 0 +-.008 .0035 -.0015 1 0 1084202
172485504e-31 30 730 1845 0 722 723 202 0 +-.008 .0035 -.0175 1 0 10842021724855
04e-31 16 722 1788 0 ?168 201 728 730 0 0 1 30 202 1674 0 189 730 396 0 +-.0095
 3469446951953615e-33 -3089976191583685e-33 1027138900249424e-31 -18260247115545
35e-31 -1 16 728 1781 0 ?720 722 731 727 0 0 1 17 720 0 503 718 732 161 721 728
 0 0 +16 731 1785 0 ?732 728 725 729 0 0 1 17 732 0 503 720 733 172 715 731 0 72
1 +16 725 1789 0 ?733 731 719 734 0 0 1 30 729 1852 0 731 734 727 0 +-.008 .0035
 -.0175 0 1 0 30 734 1853 0 725 726 729 0 +-.008 0 -.0175 1084202172485504e-31 0
 -1 30 726 1854 0 719 213 734 0 +-.008 0 -.0015 0 -1 -123908819712629e-30 30 213
 2002 0 192 391 726 0 +-.00948593849448148 .000632767748333589 -1265535496667164
e-20 -.0222122974620975 -.999553385794393 .01999106771588775 30 391 2003 0 195 7
35 213 0 +-.00948593849448148 .000632767748333586 -.01898734464503335 .022212297
4620975 .999553385794393 .01999106771588775 30 735 2006 0 390 0 391 0 +-.0094 .0
045 -.019 0 0 1 16 390 1913 0 ?193 195 0 735 0 0 1 17 733 0 503 732 718 175 736
 725 0 0 +15 503 1831 0 718 499 0 17 718 0 503 733 720 165 717 719 0 736 +17 736
 0 431 737 177 165 733 725 0 0 -15 431 1725 0 736 18 197 17 737 0 431 716 736 60
 179 347 0 0 -17 177 0 431 736 716 175 358 342 0 715 -17 716 0 431 177 737 64 36
1 359 0 0 -17 715 0 438 358 174 175 732 731 0 733 -17 174 0 438 715 372 172 168
 722 0 732 -17 361 0 441 72 66 60 716 359 0 737 +17 179 0 444 717 62 165 737 347
 0 718 +17 721 0 500 168 171 172 720 728 0 0 -82 6 539 0 -1855666770 31117024 0
 0 0 82 6 533 0 -1855666770 31117024 0 0 0 82 6 527 0 -1855666770 31117024 0 0 0
 82 6 521 0 -1855666770 31117024 0 0 0 82 1 515 398655823 82 6 514 0 -1086275038
 31117036 0 0 0 79 14 509 SWEntUnchanged82 1 430 1613168966 82 1 427 1618280774
 82 1 415 1619067206 82 1 405 -710344376 17 155 0 392 389 193 153 205 211 0 394
 +17 184 0 187 160 181 182 193 390 0 194 -19 17 100 0 1 0 9 5 S0 74 20 15 12 0 0
 534 538 738 739 740 741 742 743 744 13 511 2 0 0 0 0 0 0 0 0 81 5 738 1076 745
 1 0 739 0 0 746 0 0 0 0 81 2 739 1726 747 1 738 740 0 0 0 748 81 2 740 1738 749
 1 739 741 0 0 0 750 81 2 741 1739 751 1 740 742 0 0 752 0 81 1 742 2062 753 1 7
41 743 0 0 754 81 2 743 2098 755 1 742 744 0 0 756 0 81 2 744 2249 757 1 743 13
 0 0 0 758 81 2 13 2252 759 1 744 2 0 0 0 0 80 2 759 760 761 9000 0 0 0 0 3 5 0
 0 0 FFTFFFFFFFFFFF9 1 79 16 761 BODY_RECIPE_200180 2 757 762 763 9000 0 0 0 0 3
 5 0 0 0 FFTFFFFFFFFFFF9 1 82 1 758 1 79 24 763 BODY_IN_LIGHTWEIGHT_PERM80 2 755
 764 765 8004 0 0 0 0 3 5 0 0 0 FFTFFFFFFFFFFF2 3 83 1 756 1 79 16 765 SDL/TYSA_
DENSITY80 1 753 766 767 9000 1 1 1 1 1 1 1 1 0 FFTFFFFFFFFFFF1 82 1 754 1961605
 79 10 767 BODY_MATCH80 2 751 768 769 9000 0 0 0 0 3 5 0 0 0 FFTFTTTFFTFFFF10 10
 98 16 752 1042 1099 1088 1077 1079 45 1042 1099 1090 1103 1085 1091 1090 1100 4
9 48 79 23 769 SWIMPLICITBODYNAME_ID_U80 2 749 770 771 9000 0 0 0 0 3 5 0 0 0 FF
TFFFFFFFFFFF9 1 82 1 750 266 79 30 771 LAST_BODY_MODIFYING_FEATURE_ID80 2 747 77
2 773 9000 0 0 0 0 3 5 0 0 0 FFTFFFFFFFFFFT9 1 82 1 748 215 79 19 773 ENT_TIME_S
TAMP_200180 5 745 774 775 9000 0 0 0 0 3 6 0 0 0 FFTTTTTTFTTFTT2 2 2 2 2 83 1 74
6 1 79 19 775 BODY_SCALING_FACTOR80 2 12 776 777 9000 0 0 0 0 3 5 0 0 0 FFTFFFFF
FFFFFF9 1 82 1 14 114 79 12 777 ATOM_ID_20011 0 
